<svg xmlns="http://www.w3.org/2000/svg" xmlns:svg="http://www.w3.org/2000/svg" id="svg82" width="1280" height="640" version="1.1" viewBox="0 0 1280 640" xml:space="preserve"><defs id="defs86"><rect id="rect5119" width="1099.702" height="85.248" x="268.532" y="430.504"/></defs><rect style="fill:#0d1117;fill-opacity:1;fill-rule:nonzero" id="rect362" width="1280" height="640" x="0" y="0"/><rect style="fill:#141b2a;fill-opacity:1;stroke-width:1.86304" id="rect180" width="256" height="256" x="512" y="138.691" ry="128"/><g id="surface1" transform="matrix(0.24999999,0,0,0.25,543.9999,170.68892)"><path style="fill:#75b054;fill-opacity:1;fill-rule:nonzero;stroke:none" id="path45" d="m 64.40625,559.91406 73.21484,73.21485 -19.6914,19.67187 -73.214846,-73.19531 z m 0,0"/><path style="fill:#ffd982;fill-opacity:1;fill-rule:nonzero;stroke:none" id="path47" d="m 135.72266,631.1875 73.19531,73.21875 -19.69141,19.69141 -73.17187,-73.21875 z m 0,0"/><path style="fill:#ffab33;fill-opacity:1;fill-rule:nonzero;stroke:none" id="path49" d="m 133.82422,517.05469 73.21484,73.21875 -19.6914,19.6875 -73.21485,-73.21485 z m 0,0"/><path style="fill:#e8576e;fill-opacity:1;fill-rule:nonzero;stroke:none" id="path51" d="m 191.95703,575.1875 73.21484,73.21875 -19.6875,19.69141 -73.19531,-73.21875 z m 83.39063,-199.65625 73.19531,73.21484 -19.69141,19.69141 -73.1914,-73.21484 z m 0,0"/><path style="fill:#ffab33;fill-opacity:1;fill-rule:nonzero;stroke:none" id="path53" d="m 333.46094,433.68359 73.21484,73.19532 -19.6875,19.6914 -73.21875,-73.19531 z m 0,0"/><path style="fill:#75b054;fill-opacity:1;fill-rule:nonzero;stroke:none" id="path55" d="m 319.35937,306.71094 73.21485,73.21484 -19.66797,19.69141 -73.21484,-73.21875 z m 0,0"/><path style="fill:#ffd982;fill-opacity:1;fill-rule:nonzero;stroke:none" id="path57" d="m 389.91016,377.23828 73.21484,73.21484 -19.69141,19.69141 -73.21484,-73.21484 z m 0,0"/><path style="fill:#ffab33;fill-opacity:1;fill-rule:nonzero;stroke:none" id="path59" d="m 375.80859,250.26172 73.21485,73.21484 -19.69141,19.67188 -73.21484,-73.19532 z m 0,0"/><path style="fill:#e8576e;fill-opacity:1;fill-rule:nonzero;stroke:none" id="path61" d="m 446.35547,320.8125 73.21875,73.19141 -19.69141,19.6914 -73.19531,-73.21484 z m 73.90234,-215 73.21485,73.21875 -19.69141,19.66797 -73.21484,-73.19531 z m 0,0"/><path style="fill:#ffab33;fill-opacity:1;fill-rule:nonzero;stroke:none" id="path63" d="m 590.80469,176.36328 73.21484,73.19531 -19.6875,19.6875 -73.21875,-73.21484 z m 0,0"/><path style="fill:#75b054;fill-opacity:1;fill-rule:nonzero;stroke:none" id="path65" d="m 576.27734,48.042969 73.21485,73.214841 -19.69141,19.69141 -73.21484,-73.214845 z m 0,0"/><path style="fill:#ffd982;fill-opacity:1;fill-rule:nonzero;stroke:none" id="path67" d="m 647.67969,119.46484 73.21484,73.19532 -19.6875,19.6914 -73.21875,-73.19531 z m 0,0"/><path style="fill:#9166cc;fill-opacity:1;fill-rule:nonzero;stroke:none" id="path69" d="m 531.66797,17.324219 c -53.75781,53.757812 -55.48828,131.089841 -51.11328,209.191401 10.6875,0.59766 21.375,1.30469 32.04297,2.00782 8.32031,0.55468 16.53125,1.08593 24.72656,1.57812 C 533.09766,160 533.07812,95.722656 571.58594,57.214844 587.09375,42.21875 591.95703,21.953125 581.12109,11.007812 569.70703,-0.511719 548.22266,0.40625 531.66797,17.324219 Z m 0,0"/><path style="fill:#3a87c2;fill-opacity:1;fill-rule:nonzero;stroke:none" id="path71" d="m 280.44922,547.19922 -3.26563,-56.7461 c -0.55468,-9.49218 -1.23828,-19.17968 -1.57812,-28.41406 -6.31641,-6.3164 -52.60938,-7.44531 -56.59766,-3.45703 0.27735,9.38672 1.00391,18.85938 1.51563,28.30859 0.59765,10.71094 2.6875,48.53516 3.17968,56.7461 1.14844,19.41406 2.04688,38.52734 1.83204,56.66015 5.52734,5.52735 50.58203,9.32422 56.42578,3.45704 0.32031,-18.60157 -0.46875,-37.56641 -1.51172,-56.55469 z m 0,0"/><path style="fill:#54abee;fill-opacity:1;fill-rule:nonzero;stroke:none" id="path73" d="m 282.02734,603.73437 -56.51172,-3.45703 c -0.55468,47.125 -8.1914,88.42578 -35.99218,116.22266 -11.02735,11.03125 -11.02735,28.88672 0,39.91406 5.50781,5.50781 12.73828,8.27735 19.94922,8.27735 7.21093,0 14.4414,-2.75 19.94531,-8.27735 51.6914,-51.66797 52.6289,-153.04297 52.60937,-152.67969 z m 0,0"/><path style="fill:#9166cc;fill-opacity:1;fill-rule:nonzero;stroke:none" id="path75" d="m 540.88672,286.87109 c -10.6875,-0.59765 -21.39844,-1.30468 -32.06641,-2.00781 -8.29687,-0.55469 -16.53125,-1.08594 -24.70312,-1.57812 4.22265,70.08203 4.24609,134.3789 -34.28125,172.88671 -38.48828,38.48438 -102.67969,38.50391 -172.67188,34.28125 C 268.92969,489.96094 231.10547,487.46484 220.5,486.87109 142.27344,482.47656 64.832031,484.17969 11.007812,538.00391 0,549.01172 0,566.87109 11.03125,577.89844 c 5.503906,5.5039 12.734375,8.27734 19.945312,8.27734 7.210938,0 14.441407,-2.75 19.945313,-8.27734 38.507813,-38.48438 102.722655,-38.52735 172.757815,-34.30469 8.21484,0.49219 46.10156,2.98828 56.74609,3.58594 78.125,4.37109 155.5,2.66406 209.30078,-51.11719 53.78125,-53.75781 55.53125,-131.09375 51.16016,-209.19141 z m 0,0"/><path style="fill:#734ca8;fill-opacity:1;fill-rule:nonzero;stroke:none" id="path77" d="m 540.88672,286.87109 c -0.59766,-10.6914 -3.09375,-48.57812 -3.58594,-56.75 -0.57422,-9.59765 -1.04297,-19.07031 -1.36328,-28.41406 -7.16797,-0.44922 -44.80078,-2.83594 -56.59766,-3.47656 0.27735,9.38672 0.67969,18.83594 1.19532,28.28515 0.59375,10.69141 3.08984,48.57813 3.58203,56.76954 1.17187,19.5 1.9414,38.48437 1.72656,56.66015 7.10547,0.44922 44.67187,2.81641 56.42969,3.45703 0.32031,-18.60156 -0.32032,-37.52343 -1.38672,-56.53125 z m 0,0"/><path style="fill:#54abee;fill-opacity:1;fill-rule:nonzero;stroke:none" id="path79" d="m 759.0625,188.30859 c -8.96094,-9.30078 -29.54688,-12.82031 -48.875,7.53125 -38.50781,38.50782 -102.76172,38.52735 -172.88672,34.28125 -8.19141,-0.48828 -46.07812,-3.00781 -56.76562,-3.60547 -78.08204,-4.37109 -155.4375,-2.62109 -209.19532,51.13672 -47.2539,47.25391 -54.29297,112.72657 -52.33203,180.90625 11.79688,0.64063 49.47266,3.03125 56.59766,3.45703 -2.08985,-58.77343 2.41015,-111.23046 35.64844,-144.46875 38.50781,-38.50781 102.78515,-38.50781 172.88281,-34.28125 8.17187,0.48829 46.08203,2.98438 56.76953,3.58204 78.10156,4.375 155.43359,2.64453 209.19531,-51.11329 18.90235,-18.53906 17.91797,-38.125 8.96094,-47.42578 z m 0,0"/></g><path style="opacity:1;fill:#0b111e;fill-opacity:1;stroke-width:2.15304" id="rect4683" width="93.681" height="96" x="-767.997" y="-394.691" d="m -721.15624,-394.69141 c 25.94962,0 46.84047,20.89085 46.84047,46.84048 v 2.31905 c 0,25.94962 -20.89085,46.84047 -46.84047,46.84047 -25.94962,0 -46.84046,-20.89085 -46.84046,-46.84047 v -2.31905 c 0,-25.94963 20.89084,-46.84048 46.84046,-46.84048 z" ry="46.84" transform="scale(-1)"/><text id="text5117" transform="translate(92.117188,17.09877)" xml:space="preserve" style="font-style:normal;font-variant:normal;font-weight:700;font-stretch:normal;font-size:48px;font-family:'Segoe UI';-inkscape-font-specification:'Segoe UI, Bold';font-variant-ligatures:normal;font-variant-caps:normal;font-variant-numeric:normal;font-variant-east-asian:normal;white-space:pre;shape-inside:url(#rect5119);display:inline;fill:#f1f1f1;fill-opacity:1"><tspan id="tspan953" x="268.531" y="473.74">@discord-nucleus/assets</tspan></text><g id="g903" transform="matrix(1.5555556,0,0,1.5555556,693.15624,318.69141)"><path id="path846" fill="#292f33" d="M 31,0 H 5 C 2.791,0 1,1.791 1,4 v 28 c 0,2.209 1.791,4 4,4 h 26 c 2.209,0 4,-1.791 4,-4 V 4 C 35,1.791 33.209,0 31,0 Z"/><path id="path848" fill="#292f33" d="m 14,11 c 0,2.209 -1.791,4 -4,4 H 9 C 6.791,15 5,13.209 5,11 V 9 C 5,6.791 6.791,5 9,5 h 1 c 2.209,0 4,1.791 4,4 z"/><path id="path850" fill="#be1931" d="m 22,27 c 0,1.104 -0.896,2 -2,2 H 5 C 3.896,29 3,28.104 3,27 v -8 c 0,-1.104 0.896,-2 2,-2 h 15 c 1.104,0 2,0.896 2,2 z m 11,-8 c 0,-1.104 -0.896,-2 -2,-2 h -5 c -1.104,0 -2,0.896 -2,2 v 8 c 0,1.104 0.896,2 2,2 h 5 c 1.104,0 2,-0.896 2,-2 z M 16,4 c 0,-1.104 0.896,-2 2,-2 h 13 c 1.104,0 2,0.896 2,2 v 9 c 0,1.104 -0.896,2 -2,2 H 18 c -1.104,0 -2,-0.896 -2,-2 z m -2,9 c 0,1.104 -0.896,2 -2,2 H 5 C 3.896,15 3,14.104 3,13 V 4 C 3,2.896 3.896,2 5,2 h 7 c 1.104,0 2,0.896 2,2 z"/><path id="path852" fill="#dd2e44" d="m 14,13 c 0,1.104 -0.896,2 -2,2 H 5 C 3.896,15 3,14.104 3,13 V 7 C 3,5.896 3.896,5 5,5 h 7 c 1.104,0 2,0.896 2,2 z m 19,0 c 0,1.104 -0.896,2 -2,2 H 18 c -1.104,0 -2,-0.896 -2,-2 V 7 c 0,-1.104 0.896,-2 2,-2 h 13 c 1.104,0 2,0.896 2,2 z"/><path id="path854" fill="#e1e8ed" d="m 22,27 c 0,1.104 -0.896,2 -2,2 H 5 C 3.896,29 3,28.104 3,27 v -5 c 0,-1.104 0.896,-2 2,-2 h 15 c 1.104,0 2,0.896 2,2 z"/><path id="path856" fill="#dd2e44" d="m 33,27 c 0,1.104 -0.896,2 -2,2 h -5 c -1.104,0 -2,-0.896 -2,-2 v -5 c 0,-1.104 0.896,-2 2,-2 h 5 c 1.104,0 2,0.896 2,2 z"/><path id="path858" fill="#ffac33" d="m 27.015,9.24 c 1.315,1.478 1.908,3.098 1.322,3.619 L 27.278,13.8 c -0.585,0.522 -2.126,-0.255 -3.44,-1.733 L 20.267,8.054 C 18.953,6.575 18.36,4.955 18.946,4.434 l 1.059,-0.941 c 0.586,-0.521 2.124,0.255 3.438,1.733 z"/><path id="path860" fill="#ffd983" d="m 22.28,11.076 c -0.598,1.539 -1.477,2.633 -1.961,2.444 l -0.877,-0.341 c -0.485,-0.188 -0.393,-1.588 0.205,-3.126 l 1.625,-4.178 c 0.599,-1.538 1.477,-2.632 1.962,-2.444 l 0.876,0.341 c 0.485,0.188 0.394,1.588 -0.205,3.126 z"/><path id="path862" fill="#ffd983" d="m 23.113,11.536 c -1.562,0.535 -2.965,0.568 -3.133,0.076 l -0.305,-0.891 c -0.169,-0.492 0.962,-1.324 2.522,-1.858 l 4.242,-1.45 c 1.562,-0.534 2.964,-0.567 3.133,-0.075 l 0.304,0.89 c 0.169,0.493 -0.961,1.325 -2.523,1.858 z"/><path id="path864" fill="#5c913b" d="m 6.442,7.873 c 0.373,-4.106 4.907,-0.961 7.135,1.049 -1.34,1.485 -7.586,3.93 -7.135,-1.049 z"/><path id="path866" fill="#5c913b" d="M 6.584,7.784 C 10.323,6.047 9.877,11.547 9.256,14.482 7.3,14.068 2.05,9.892 6.584,7.784 Z"/><path id="path868" fill="#77b255" d="M 5,8 C 3.8,6.4 6,3 11,3 12,4 8,12 5,8 Z"/><path id="path870" fill="#b2c2cc" d="m 6,27 c -0.256,0 -0.512,-0.098 -0.707,-0.293 -0.391,-0.391 -0.391,-1.023 0,-1.414 l 1,-1 c 0.391,-0.391 1.023,-0.391 1.414,0 0.391,0.391 0.391,1.023 0,1.414 l -1,1 C 6.512,26.902 6.256,27 6,27 Z m 12.417,0.499 c -0.256,0 -0.512,-0.098 -0.707,-0.293 l -1,-1 c -0.391,-0.391 -0.391,-1.024 0,-1.414 0.391,-0.391 1.024,-0.391 1.415,0 l 1,1 c 0.391,0.391 0.391,1.023 0,1.414 -0.196,0.195 -0.452,0.293 -0.708,0.293 z M 12.25,23.208 c -0.255,0 -0.511,-0.098 -0.707,-0.292 l -0.459,-0.458 c -0.391,-0.391 -0.392,-1.023 -0.002,-1.414 0.389,-0.392 1.023,-0.392 1.415,-0.002 l 0.459,0.458 c 0.391,0.391 0.392,1.023 0.002,1.414 -0.195,0.196 -0.451,0.294 -0.708,0.294 z"/><path id="path872" fill="#b26304" d="m 32.149,23.412 c 0.707,0.848 0.592,2.109 -0.257,2.816 l -2.305,1.921 c -0.848,0.707 -2.109,0.592 -2.816,-0.257 L 24.85,25.587 c -0.707,-0.848 -0.592,-2.109 0.257,-2.816 l 2.305,-1.921 c 0.848,-0.707 2.109,-0.592 2.816,0.257 z"/><path id="path874" fill="#f4900c" d="m 32.149,21.412 c 0.707,0.848 0.592,2.109 -0.257,2.816 l -2.305,1.921 c -0.848,0.707 -2.109,0.592 -2.816,-0.257 L 24.85,23.587 c -0.707,-0.848 -0.592,-2.109 0.257,-2.816 l 2.305,-1.921 c 0.848,-0.707 2.109,-0.592 2.816,0.257 z"/><circle id="circle876" cx="12" cy="26" r="1" fill="#ccd6dd"/><circle id="circle878" cx="20" cy="22" r="1" fill="#ccd6dd"/></g></svg>