<?xml version="1.0" encoding="UTF-8" standalone="no"?>
<svg
   width="1024"
   height="1024"
   viewBox="0 0 1024 1024"
   version="1.1"
   id="svg82"
   sodipodi:docname="icon.svg"
   inkscape:version="1.2.1 (9c6d41e410, 2022-07-14)"
   xml:space="preserve"
   inkscape:export-filename="nucleus-config.png"
   inkscape:export-xdpi="96"
   inkscape:export-ydpi="96"
   xmlns:inkscape="http://www.inkscape.org/namespaces/inkscape"
   xmlns:sodipodi="http://sodipodi.sourceforge.net/DTD/sodipodi-0.dtd"
   xmlns="http://www.w3.org/2000/svg"
   xmlns:svg="http://www.w3.org/2000/svg"><defs
     id="defs86"><inkscape:path-effect
       effect="fillet_chamfer"
       id="path-effect4685"
       is_visible="true"
       lpeversion="1"
       nodesatellites_param="F,1,0,1,0,0.5,0,1 @ F,1,0,1,0,0.5,0,1 @ F,1,0,1,0,0.5,0,1 @ F,1,0,1,0,0.5,0,1"
       unit="px"
       method="auto"
       mode="F"
       radius="50"
       chamfer_steps="1"
       flexible="true"
       use_knot_distance="true"
       apply_no_radius="true"
       apply_with_radius="true"
       only_selected="false"
       hide_knots="false" /><inkscape:path-effect
       effect="fillet_chamfer"
       id="path-effect4577"
       is_visible="true"
       lpeversion="1"
       nodesatellites_param="F,1,0,1,0,0.5,0,1 @ F,1,0,1,0,0.5,0,1 @ F,1,0,1,0,0.5,0,1 @ F,1,0,1,0,0.5,0,1"
       unit="px"
       method="auto"
       mode="F"
       radius="50"
       chamfer_steps="1"
       flexible="true"
       use_knot_distance="true"
       apply_no_radius="true"
       apply_with_radius="true"
       only_selected="false"
       hide_knots="false" /></defs><sodipodi:namedview
     id="namedview84"
     pagecolor="#ffffff"
     bordercolor="#000000"
     borderopacity="0.25"
     inkscape:showpageshadow="2"
     inkscape:pageopacity="0"
     inkscape:pagecheckerboard="0"
     inkscape:deskcolor="#d1d1d1"
     showgrid="false"
     inkscape:zoom="0.66357422"
     inkscape:cx="324.75644"
     inkscape:cy="486.75791"
     inkscape:window-width="1920"
     inkscape:window-height="1009"
     inkscape:window-x="-8"
     inkscape:window-y="-8"
     inkscape:window-maximized="1"
     inkscape:current-layer="svg82" /><rect
     style="fill:#141b2a;fill-opacity:1;stroke-width:7.45217"
     id="rect180"
     width="1024"
     height="1024"
     x="0"
     y="0"
     ry="512" /><g
     id="surface1"
     transform="translate(127.99857,127.99005)"><path
       style="fill:#75b054;fill-opacity:1;fill-rule:nonzero;stroke:none"
       d="m 64.40625,559.91406 73.21484,73.21485 -19.6914,19.67187 -73.214846,-73.19531 z m 0,0"
       id="path45" /><path
       style="fill:#ffd982;fill-opacity:1;fill-rule:nonzero;stroke:none"
       d="m 135.72266,631.1875 73.19531,73.21875 -19.69141,19.69141 -73.17187,-73.21875 z m 0,0"
       id="path47" /><path
       style="fill:#ffab33;fill-opacity:1;fill-rule:nonzero;stroke:none"
       d="m 133.82422,517.05469 73.21484,73.21875 -19.6914,19.6875 -73.21485,-73.21485 z m 0,0"
       id="path49" /><path
       style="fill:#e8576e;fill-opacity:1;fill-rule:nonzero;stroke:none"
       d="m 191.95703,575.1875 73.21484,73.21875 -19.6875,19.69141 -73.19531,-73.21875 z m 83.39063,-199.65625 73.19531,73.21484 -19.69141,19.69141 -73.1914,-73.21484 z m 0,0"
       id="path51" /><path
       style="fill:#ffab33;fill-opacity:1;fill-rule:nonzero;stroke:none"
       d="m 333.46094,433.68359 73.21484,73.19532 -19.6875,19.6914 -73.21875,-73.19531 z m 0,0"
       id="path53" /><path
       style="fill:#75b054;fill-opacity:1;fill-rule:nonzero;stroke:none"
       d="m 319.35937,306.71094 73.21485,73.21484 -19.66797,19.69141 -73.21484,-73.21875 z m 0,0"
       id="path55" /><path
       style="fill:#ffd982;fill-opacity:1;fill-rule:nonzero;stroke:none"
       d="m 389.91016,377.23828 73.21484,73.21484 -19.69141,19.69141 -73.21484,-73.21484 z m 0,0"
       id="path57" /><path
       style="fill:#ffab33;fill-opacity:1;fill-rule:nonzero;stroke:none"
       d="m 375.80859,250.26172 73.21485,73.21484 -19.69141,19.67188 -73.21484,-73.19532 z m 0,0"
       id="path59" /><path
       style="fill:#e8576e;fill-opacity:1;fill-rule:nonzero;stroke:none"
       d="m 446.35547,320.8125 73.21875,73.19141 -19.69141,19.6914 -73.19531,-73.21484 z m 73.90234,-215 73.21485,73.21875 -19.69141,19.66797 -73.21484,-73.19531 z m 0,0"
       id="path61" /><path
       style="fill:#ffab33;fill-opacity:1;fill-rule:nonzero;stroke:none"
       d="m 590.80469,176.36328 73.21484,73.19531 -19.6875,19.6875 -73.21875,-73.21484 z m 0,0"
       id="path63" /><path
       style="fill:#75b054;fill-opacity:1;fill-rule:nonzero;stroke:none"
       d="m 576.27734,48.042969 73.21485,73.214841 -19.69141,19.69141 -73.21484,-73.214845 z m 0,0"
       id="path65" /><path
       style="fill:#ffd982;fill-opacity:1;fill-rule:nonzero;stroke:none"
       d="m 647.67969,119.46484 73.21484,73.19532 -19.6875,19.6914 -73.21875,-73.19531 z m 0,0"
       id="path67" /><path
       style="fill:#9166cc;fill-opacity:1;fill-rule:nonzero;stroke:none"
       d="m 531.66797,17.324219 c -53.75781,53.757812 -55.48828,131.089841 -51.11328,209.191401 10.6875,0.59766 21.375,1.30469 32.04297,2.00782 8.32031,0.55468 16.53125,1.08593 24.72656,1.57812 C 533.09766,160 533.07812,95.722656 571.58594,57.214844 587.09375,42.21875 591.95703,21.953125 581.12109,11.007812 569.70703,-0.511719 548.22266,0.40625 531.66797,17.324219 Z m 0,0"
       id="path69" /><path
       style="fill:#3a87c2;fill-opacity:1;fill-rule:nonzero;stroke:none"
       d="m 280.44922,547.19922 -3.26563,-56.7461 c -0.55468,-9.49218 -1.23828,-19.17968 -1.57812,-28.41406 -6.31641,-6.3164 -52.60938,-7.44531 -56.59766,-3.45703 0.27735,9.38672 1.00391,18.85938 1.51563,28.30859 0.59765,10.71094 2.6875,48.53516 3.17968,56.7461 1.14844,19.41406 2.04688,38.52734 1.83204,56.66015 5.52734,5.52735 50.58203,9.32422 56.42578,3.45704 0.32031,-18.60157 -0.46875,-37.56641 -1.51172,-56.55469 z m 0,0"
       id="path71" /><path
       style="fill:#54abee;fill-opacity:1;fill-rule:nonzero;stroke:none"
       d="m 282.02734,603.73437 -56.51172,-3.45703 c -0.55468,47.125 -8.1914,88.42578 -35.99218,116.22266 -11.02735,11.03125 -11.02735,28.88672 0,39.91406 5.50781,5.50781 12.73828,8.27735 19.94922,8.27735 7.21093,0 14.4414,-2.75 19.94531,-8.27735 51.6914,-51.66797 52.6289,-153.04297 52.60937,-152.67969 z m 0,0"
       id="path73" /><path
       style="fill:#9166cc;fill-opacity:1;fill-rule:nonzero;stroke:none"
       d="m 540.88672,286.87109 c -10.6875,-0.59765 -21.39844,-1.30468 -32.06641,-2.00781 -8.29687,-0.55469 -16.53125,-1.08594 -24.70312,-1.57812 4.22265,70.08203 4.24609,134.3789 -34.28125,172.88671 -38.48828,38.48438 -102.67969,38.50391 -172.67188,34.28125 C 268.92969,489.96094 231.10547,487.46484 220.5,486.87109 142.27344,482.47656 64.832031,484.17969 11.007812,538.00391 0,549.01172 0,566.87109 11.03125,577.89844 c 5.503906,5.5039 12.734375,8.27734 19.945312,8.27734 7.210938,0 14.441407,-2.75 19.945313,-8.27734 38.507813,-38.48438 102.722655,-38.52735 172.757815,-34.30469 8.21484,0.49219 46.10156,2.98828 56.74609,3.58594 78.125,4.37109 155.5,2.66406 209.30078,-51.11719 53.78125,-53.75781 55.53125,-131.09375 51.16016,-209.19141 z m 0,0"
       id="path75" /><path
       style="fill:#734ca8;fill-opacity:1;fill-rule:nonzero;stroke:none"
       d="m 540.88672,286.87109 c -0.59766,-10.6914 -3.09375,-48.57812 -3.58594,-56.75 -0.57422,-9.59765 -1.04297,-19.07031 -1.36328,-28.41406 -7.16797,-0.44922 -44.80078,-2.83594 -56.59766,-3.47656 0.27735,9.38672 0.67969,18.83594 1.19532,28.28515 0.59375,10.69141 3.08984,48.57813 3.58203,56.76954 1.17187,19.5 1.9414,38.48437 1.72656,56.66015 7.10547,0.44922 44.67187,2.81641 56.42969,3.45703 0.32031,-18.60156 -0.32032,-37.52343 -1.38672,-56.53125 z m 0,0"
       id="path77" /><path
       style="fill:#54abee;fill-opacity:1;fill-rule:nonzero;stroke:none"
       d="m 759.0625,188.30859 c -8.96094,-9.30078 -29.54688,-12.82031 -48.875,7.53125 -38.50781,38.50782 -102.76172,38.52735 -172.88672,34.28125 -8.19141,-0.48828 -46.07812,-3.00781 -56.76562,-3.60547 -78.08204,-4.37109 -155.4375,-2.62109 -209.19532,51.13672 -47.2539,47.25391 -54.29297,112.72657 -52.33203,180.90625 11.79688,0.64063 49.47266,3.03125 56.59766,3.45703 -2.08985,-58.77343 2.41015,-111.23046 35.64844,-144.46875 38.50781,-38.50781 102.78515,-38.50781 172.88281,-34.28125 8.17187,0.48829 46.08203,2.98438 56.76953,3.58204 78.10156,4.375 155.43359,2.64453 209.19531,-51.11329 18.90235,-18.53906 17.91797,-38.125 8.96094,-47.42578 z m 0,0"
       id="path79" /></g><path
     style="opacity:1;fill:#0b111e;fill-opacity:1;stroke-width:2.15304"
     id="rect4683"
     width="374.72375"
     height="384"
     x="-1023.9858"
     y="-1024"
     transform="scale(-1)"
     sodipodi:type="rect"
     ry="187.36188"
     d="m -836.6239,-1024 c 103.79848,0 187.36188,83.5634 187.36188,187.36188 v 9.27624 c 0,103.79848 -83.5634,187.36188 -187.36188,187.36188 -103.79848,0 -187.3619,-83.5634 -187.3619,-187.36188 v -9.27624 c 0,-103.79848 83.56342,-187.36188 187.3619,-187.36188 z" /><g
     id="g349"
     transform="matrix(6.2484154,0,0,6.2484154,723.67883,721.6318)"><path
       fill="#99aab5"
       d="M 8.514,19.828 19.122,9.223 21.243,11.344 10.635,21.95 Z"
       id="path310" /><path
       fill="#55acee"
       d="m 8.515,29.728 c -0.781,0.781 -2.047,0.781 -2.828,0 l -4.95,-4.949 c -0.781,-0.781 -0.781,-2.048 0,-2.828 L 5.687,17 c 0.781,-0.781 2.047,-0.781 2.828,0 l 4.95,4.95 c 0.781,0.78 0.781,2.047 0,2.828 z M 24.777,13.465 c -0.78,0.781 -2.047,0.781 -2.827,0 L 17,8.515 C 16.219,7.734 16.219,6.468 17,5.687 l 4.951,-4.95 c 0.781,-0.781 2.047,-0.781 2.828,0 l 4.949,4.95 c 0.781,0.781 0.781,2.047 10e-4,2.828 z"
       id="path312" /><path
       fill="#99aab5"
       d="M 12.404,10.283 10.99,6.04 C 10.542,4.698 9.575,4.625 8.868,5.332 L 6.04,8.161 C 5.332,8.868 5.405,9.835 6.747,10.283 l 4.243,1.414 z"
       id="path314" /><path
       fill="#ccd6dd"
       d="M 17.708,21.949 C 16.926,22.73 15.66,22.73 14.879,21.95 L 7.808,14.879 c -0.781,-0.781 -0.781,-2.048 0,-2.829 L 12.05,7.808 c 0.781,-0.781 2.048,-0.781 2.829,0 l 7.071,7.071 c 0.78,0.781 0.78,2.047 -10e-4,2.829 z"
       id="path316" /><path
       fill="#ccd6dd"
       d="m 21.016,21.055 c -1.952,1.953 -4.802,2.269 -6.364,0.708 -1.562,-1.562 0.876,-2.29 2.829,-4.243 1.953,-1.953 2.681,-4.39 4.243,-2.829 1.561,1.562 1.245,4.411 -0.708,6.364 z"
       id="path318" /><path
       fill="#99aab5"
       d="m 27.96,20.182 c -2.12,-2.122 -5.118,-1.951 -7.071,0 -1.952,1.954 -2.121,4.95 0,7.071 z m -2.828,2.829 2.121,3.535 -3.535,-2.121 z"
       id="path320" /><path
       fill="#99aab5"
       d="m 27.813,27.106 c -0.391,0.391 -1.023,0.391 -1.414,0 -0.391,-0.391 -0.391,-1.023 0,-1.414 0.391,-0.391 1.023,-0.391 1.414,0 0.391,0.391 0.391,1.024 0,1.414 z"
       id="path322" /><path
       fill="#88c9f9"
       d="M 4.27,18.416 5.686,17 l 7.779,7.777 -1.414,1.415 z M 17,5.686 l 1.414,-1.414 7.778,7.778 -1.414,1.414 z m -16.265,16.266 1.414,-1.415 7.78,7.776 -1.414,1.414 z m 19.798,-19.8 1.413,-1.415 7.781,7.775 -1.413,1.414 z"
       id="path324" /><path
       fill="#99aab5"
       d="m 8.307,7.601 c -0.39,0.39 -1.023,0.39 -1.414,0 -0.391,-0.391 -0.39,-1.024 0,-1.415 0.391,-0.39 1.023,-0.39 1.414,0 0.391,0.391 0.391,1.024 0,1.415 z"
       id="path326" /><path
       fill="#ffac33"
       d="m 23.682,30.431 0.002,-0.051 c 0.027,-0.552 0.497,-0.977 1.049,-0.949 0.016,10e-4 2.156,0.063 3.8,-1.58 1.637,-1.638 1.578,-3.772 1.58,-3.801 -0.033,-0.55 0.397,-1.021 0.948,-1.049 0.552,-0.027 1.022,0.397 1.049,0.949 0.012,0.122 0.123,3.028 -2.163,5.314 -2.288,2.287 -5.191,2.17 -5.314,2.164 -0.535,-0.027 -0.951,-0.468 -0.951,-0.997 z"
       id="path328" /><path
       fill="#ffac33"
       d="m 24.238,33.989 c 0,-0.109 0.018,-0.221 0.057,-0.33 0.182,-0.521 0.752,-0.796 1.273,-0.613 0.107,0.034 2.877,0.893 5.964,-2.195 3.127,-3.126 2.414,-6.126 2.382,-6.252 -0.137,-0.529 0.184,-1.077 0.716,-1.216 0.53,-0.14 1.073,0.172 1.217,0.701 0.046,0.17 1.077,4.205 -2.9,8.181 -4.014,4.016 -7.876,2.726 -8.038,2.668 -0.413,-0.144 -0.671,-0.531 -0.671,-0.944 z"
       id="path330" /></g></svg>
