<svg xmlns="http://www.w3.org/2000/svg" xmlns:svg="http://www.w3.org/2000/svg" id="svg82" width="1280" height="640" version="1.1" viewBox="0 0 1280 640" xml:space="preserve"><defs id="defs86"><rect id="rect5119" width="1099.702" height="85.248" x="268.532" y="430.504"/></defs><rect style="fill:#0d1117;fill-opacity:1;fill-rule:nonzero" id="rect362" width="1280" height="640" x="0" y="0"/><rect style="fill:#141b2a;fill-opacity:1;stroke-width:1.86304" id="rect180" width="256" height="256" x="512" y="138.691" ry="128"/><g id="surface1" transform="matrix(0.24999999,0,0,0.25,543.9999,170.68892)"><path style="fill:#75b054;fill-opacity:1;fill-rule:nonzero;stroke:none" id="path45" d="m 64.40625,559.91406 73.21484,73.21485 -19.6914,19.67187 -73.214846,-73.19531 z m 0,0"/><path style="fill:#ffd982;fill-opacity:1;fill-rule:nonzero;stroke:none" id="path47" d="m 135.72266,631.1875 73.19531,73.21875 -19.69141,19.69141 -73.17187,-73.21875 z m 0,0"/><path style="fill:#ffab33;fill-opacity:1;fill-rule:nonzero;stroke:none" id="path49" d="m 133.82422,517.05469 73.21484,73.21875 -19.6914,19.6875 -73.21485,-73.21485 z m 0,0"/><path style="fill:#e8576e;fill-opacity:1;fill-rule:nonzero;stroke:none" id="path51" d="m 191.95703,575.1875 73.21484,73.21875 -19.6875,19.69141 -73.19531,-73.21875 z m 83.39063,-199.65625 73.19531,73.21484 -19.69141,19.69141 -73.1914,-73.21484 z m 0,0"/><path style="fill:#ffab33;fill-opacity:1;fill-rule:nonzero;stroke:none" id="path53" d="m 333.46094,433.68359 73.21484,73.19532 -19.6875,19.6914 -73.21875,-73.19531 z m 0,0"/><path style="fill:#75b054;fill-opacity:1;fill-rule:nonzero;stroke:none" id="path55" d="m 319.35937,306.71094 73.21485,73.21484 -19.66797,19.69141 -73.21484,-73.21875 z m 0,0"/><path style="fill:#ffd982;fill-opacity:1;fill-rule:nonzero;stroke:none" id="path57" d="m 389.91016,377.23828 73.21484,73.21484 -19.69141,19.69141 -73.21484,-73.21484 z m 0,0"/><path style="fill:#ffab33;fill-opacity:1;fill-rule:nonzero;stroke:none" id="path59" d="m 375.80859,250.26172 73.21485,73.21484 -19.69141,19.67188 -73.21484,-73.19532 z m 0,0"/><path style="fill:#e8576e;fill-opacity:1;fill-rule:nonzero;stroke:none" id="path61" d="m 446.35547,320.8125 73.21875,73.19141 -19.69141,19.6914 -73.19531,-73.21484 z m 73.90234,-215 73.21485,73.21875 -19.69141,19.66797 -73.21484,-73.19531 z m 0,0"/><path style="fill:#ffab33;fill-opacity:1;fill-rule:nonzero;stroke:none" id="path63" d="m 590.80469,176.36328 73.21484,73.19531 -19.6875,19.6875 -73.21875,-73.21484 z m 0,0"/><path style="fill:#75b054;fill-opacity:1;fill-rule:nonzero;stroke:none" id="path65" d="m 576.27734,48.042969 73.21485,73.214841 -19.69141,19.69141 -73.21484,-73.214845 z m 0,0"/><path style="fill:#ffd982;fill-opacity:1;fill-rule:nonzero;stroke:none" id="path67" d="m 647.67969,119.46484 73.21484,73.19532 -19.6875,19.6914 -73.21875,-73.19531 z m 0,0"/><path style="fill:#9166cc;fill-opacity:1;fill-rule:nonzero;stroke:none" id="path69" d="m 531.66797,17.324219 c -53.75781,53.757812 -55.48828,131.089841 -51.11328,209.191401 10.6875,0.59766 21.375,1.30469 32.04297,2.00782 8.32031,0.55468 16.53125,1.08593 24.72656,1.57812 C 533.09766,160 533.07812,95.722656 571.58594,57.214844 587.09375,42.21875 591.95703,21.953125 581.12109,11.007812 569.70703,-0.511719 548.22266,0.40625 531.66797,17.324219 Z m 0,0"/><path style="fill:#3a87c2;fill-opacity:1;fill-rule:nonzero;stroke:none" id="path71" d="m 280.44922,547.19922 -3.26563,-56.7461 c -0.55468,-9.49218 -1.23828,-19.17968 -1.57812,-28.41406 -6.31641,-6.3164 -52.60938,-7.44531 -56.59766,-3.45703 0.27735,9.38672 1.00391,18.85938 1.51563,28.30859 0.59765,10.71094 2.6875,48.53516 3.17968,56.7461 1.14844,19.41406 2.04688,38.52734 1.83204,56.66015 5.52734,5.52735 50.58203,9.32422 56.42578,3.45704 0.32031,-18.60157 -0.46875,-37.56641 -1.51172,-56.55469 z m 0,0"/><path style="fill:#54abee;fill-opacity:1;fill-rule:nonzero;stroke:none" id="path73" d="m 282.02734,603.73437 -56.51172,-3.45703 c -0.55468,47.125 -8.1914,88.42578 -35.99218,116.22266 -11.02735,11.03125 -11.02735,28.88672 0,39.91406 5.50781,5.50781 12.73828,8.27735 19.94922,8.27735 7.21093,0 14.4414,-2.75 19.94531,-8.27735 51.6914,-51.66797 52.6289,-153.04297 52.60937,-152.67969 z m 0,0"/><path style="fill:#9166cc;fill-opacity:1;fill-rule:nonzero;stroke:none" id="path75" d="m 540.88672,286.87109 c -10.6875,-0.59765 -21.39844,-1.30468 -32.06641,-2.00781 -8.29687,-0.55469 -16.53125,-1.08594 -24.70312,-1.57812 4.22265,70.08203 4.24609,134.3789 -34.28125,172.88671 -38.48828,38.48438 -102.67969,38.50391 -172.67188,34.28125 C 268.92969,489.96094 231.10547,487.46484 220.5,486.87109 142.27344,482.47656 64.832031,484.17969 11.007812,538.00391 0,549.01172 0,566.87109 11.03125,577.89844 c 5.503906,5.5039 12.734375,8.27734 19.945312,8.27734 7.210938,0 14.441407,-2.75 19.945313,-8.27734 38.507813,-38.48438 102.722655,-38.52735 172.757815,-34.30469 8.21484,0.49219 46.10156,2.98828 56.74609,3.58594 78.125,4.37109 155.5,2.66406 209.30078,-51.11719 53.78125,-53.75781 55.53125,-131.09375 51.16016,-209.19141 z m 0,0"/><path style="fill:#734ca8;fill-opacity:1;fill-rule:nonzero;stroke:none" id="path77" d="m 540.88672,286.87109 c -0.59766,-10.6914 -3.09375,-48.57812 -3.58594,-56.75 -0.57422,-9.59765 -1.04297,-19.07031 -1.36328,-28.41406 -7.16797,-0.44922 -44.80078,-2.83594 -56.59766,-3.47656 0.27735,9.38672 0.67969,18.83594 1.19532,28.28515 0.59375,10.69141 3.08984,48.57813 3.58203,56.76954 1.17187,19.5 1.9414,38.48437 1.72656,56.66015 7.10547,0.44922 44.67187,2.81641 56.42969,3.45703 0.32031,-18.60156 -0.32032,-37.52343 -1.38672,-56.53125 z m 0,0"/><path style="fill:#54abee;fill-opacity:1;fill-rule:nonzero;stroke:none" id="path79" d="m 759.0625,188.30859 c -8.96094,-9.30078 -29.54688,-12.82031 -48.875,7.53125 -38.50781,38.50782 -102.76172,38.52735 -172.88672,34.28125 -8.19141,-0.48828 -46.07812,-3.00781 -56.76562,-3.60547 -78.08204,-4.37109 -155.4375,-2.62109 -209.19532,51.13672 -47.2539,47.25391 -54.29297,112.72657 -52.33203,180.90625 11.79688,0.64063 49.47266,3.03125 56.59766,3.45703 -2.08985,-58.77343 2.41015,-111.23046 35.64844,-144.46875 38.50781,-38.50781 102.78515,-38.50781 172.88281,-34.28125 8.17187,0.48829 46.08203,2.98438 56.76953,3.58204 78.10156,4.375 155.43359,2.64453 209.19531,-51.11329 18.90235,-18.53906 17.91797,-38.125 8.96094,-47.42578 z m 0,0"/></g><path style="opacity:1;fill:#0b111e;fill-opacity:1;stroke-width:2.15304" id="rect4683" width="93.681" height="96" x="-767.997" y="-394.691" d="m -721.15624,-394.69141 c 25.94962,0 46.84047,20.89085 46.84047,46.84048 v 2.31905 c 0,25.94962 -20.89085,46.84047 -46.84047,46.84047 -25.94962,0 -46.84046,-20.89085 -46.84046,-46.84047 v -2.31905 c 0,-25.94963 20.89084,-46.84048 46.84046,-46.84048 z" ry="46.84" transform="scale(-1)"/><text id="text5117" transform="translate(120.08984,17.09877)" xml:space="preserve" style="font-style:normal;font-variant:normal;font-weight:700;font-stretch:normal;font-size:48px;font-family:'Segoe UI';-inkscape-font-specification:'Segoe UI, Bold';font-variant-ligatures:normal;font-variant-caps:normal;font-variant-numeric:normal;font-variant-east-asian:normal;white-space:pre;shape-inside:url(#rect5119);display:inline;fill:#f1f1f1;fill-opacity:1"><tspan id="tspan461" x="268.531" y="473.74">@discord-nucleus/bot</tspan></text><g id="g364" transform="matrix(1.5555556,0,0,1.5555556,693.15624,319.46918)"><ellipse id="ellipse316" cx="33.5" cy="14.5" fill="#f4900c" rx="2.5" ry="3.5"/><ellipse id="ellipse318" cx="2.5" cy="14.5" fill="#f4900c" rx="2.5" ry="3.5"/><path id="path320" fill="#ffac33" d="m 34,19 c 0,0.553 -0.447,1 -1,1 h -3 c -0.553,0 -1,-0.447 -1,-1 v -9 c 0,-0.552 0.447,-1 1,-1 h 3 c 0.553,0 1,0.448 1,1 z M 7,19 c 0,0.553 -0.448,1 -1,1 H 3 C 2.448,20 2,19.553 2,19 V 10 C 2,9.448 2.448,9 3,9 h 3 c 0.552,0 1,0.448 1,1 z"/><path id="path322" fill="#ffcc4d" d="M 28,5 C 28,7.761 23.522,9 18,9 12.477,9 8,7.761 8,5 8,2.239 12.477,0 18,0 23.522,0 28,2.239 28,5 Z"/><path id="path324" fill="#f4900c" d="M 25,4.083 C 25,5.694 21.865,7 18,7 14.134,7 11,5.694 11,4.083 c 0,-1.611 3.134,-2.917 7,-2.917 3.865,0 7,1.306 7,2.917 z"/><path id="path326" fill="#269" d="M 30,5.5 C 30,6.881 28.881,7 27.5,7 H 8.5 C 7.119,7 6,6.881 6,5.5 6,4.119 7.119,3 8.5,3 h 19 C 28.881,3 30,4.119 30,5.5 Z"/><path id="path328" fill="#55acee" d="M 30,6 H 6 C 4.896,6 4,6.896 4,8 V 34 H 32 V 8 C 32,6.896 31.104,6 30,6 Z"/><path id="path330" fill="#3b88c3" d="m 35,33 v -1 c 0,-1.104 -0.896,-2 -2,-2 H 22.071 l -3.364,3.364 c -0.391,0.391 -1.023,0.391 -1.414,0 L 13.929,30 H 3 c -1.104,0 -2,0.896 -2,2 v 1 c 0,1.104 -0.104,2 1,2 h 32 c 1.104,0 1,-0.896 1,-2 z"/><circle id="circle332" cx="24.5" cy="14.5" r="4.5" fill="#fff"/><circle id="circle334" cx="24.5" cy="14.5" r="2.721" fill="#dd2e44"/><circle id="circle336" cx="11.5" cy="14.5" r="4.5" fill="#fff"/><path id="path338" fill="#f5f8fa" d="M 29,25.5 C 29,26.881 27.881,28 26.5,28 H 9.5 C 8.119,28 7,26.881 7,25.5 7,24.119 8.119,23 9.5,23 h 17 c 1.381,0 2.5,1.119 2.5,2.5 z"/><path id="path340" fill="#ccd6dd" d="m 17,23 h 2 v 5 h -2 z m -5,0 h 2 v 5 h -2 z m 10,0 h 2 v 5 H 22 Z M 7,25.5 c 0,1.21 0.859,2.218 2,2.45 v -4.9 C 7.859,23.282 7,24.29 7,25.5 Z m 20,-2.45 v 4.899 c 1.141,-0.232 2,-1.24 2,-2.45 0,-1.21 -0.859,-2.217 -2,-2.449 z"/><circle id="circle342" cx="11.5" cy="14.5" r="2.721" fill="#dd2e44"/></g></svg>